<svg width="50" height="50" viewBox="0 0 50 50" fill="none" xmlns="http://www.w3.org/2000/svg">
<path fill-rule="evenodd" clip-rule="evenodd" d="M50 25.0009C49.9991 38.771 38.6221 50.0756 24.8425 49.9991C11.2109 49.9236 -0.00093925 38.6408 2.98023e-06 24.999C2.98023e-06 11.228 11.3769 -0.0765299 25.1566 -0.000103021C38.7882 0.0753803 50 11.3583 50 25.0009Z" fill="#0C65CA"/>
<path fill-rule="evenodd" clip-rule="evenodd" d="M25.7071 32.2924C26.0976 31.9019 26.0976 31.2687 25.7071 30.8782L20.3431 25.5142L32.0711 25.5142C32.6234 25.5142 33.0711 25.0665 33.0711 24.5142C33.0711 23.9619 32.6234 23.5142 32.0711 23.5142H20.3431L25.7071 18.1503C26.0976 17.7597 26.0976 17.1266 25.7071 16.7361C25.3166 16.3455 24.6834 16.3455 24.2929 16.7361L17.2218 23.8071C16.8313 24.1976 16.8313 24.8308 17.2218 25.2213L24.2929 32.2924C24.6834 32.6829 25.3166 32.6829 25.7071 32.2924Z" fill="#F6F8FB"/>
</svg>
