<svg width="50" height="50" viewBox="0 0 50 50" fill="none" xmlns="http://www.w3.org/2000/svg">
<path fill-rule="evenodd" clip-rule="evenodd" d="M50 25.0014C49.9991 38.7715 38.6221 50.076 24.8425 49.9996C11.2109 49.9241 -0.00094223 38.6413 0 24.9995C0 11.2285 11.3769 -0.0760416 25.1566 0.00038526C38.7882 0.0758686 50 11.3587 50 25.0014Z" fill="#0C65CA"/>
<path fill-rule="evenodd" clip-rule="evenodd" d="M24.2929 17.7071C23.9024 18.0976 23.9024 18.7308 24.2929 19.1213L29.6569 24.4853L17.9289 24.4853C17.3766 24.4853 16.9289 24.933 16.9289 25.4853C16.9289 26.0376 17.3766 26.4853 17.9289 26.4853H29.6569L24.2929 31.8492C23.9024 32.2398 23.9024 32.8729 24.2929 33.2635C24.6834 33.654 25.3166 33.654 25.7071 33.2635L32.7782 26.1924C33.1687 25.8019 33.1687 25.1687 32.7782 24.7782L25.7071 17.7071C25.3166 17.3166 24.6834 17.3166 24.2929 17.7071Z" fill="#F6F8FB"/>
</svg>
