<svg width="36" height="36" viewBox="0 0 36 36" fill="none" xmlns="http://www.w3.org/2000/svg">
<path d="M27.25 1H9.05C4.60411 1 1 4.60411 1 9.05V27.25C1 31.6959 4.60411 35.3 9.05 35.3H27.25C31.6959 35.3 35.3 31.6959 35.3 27.25V9.05C35.3 4.60411 31.6959 1 27.25 1Z" fill="#E6ECF1" stroke="#E6ECF1"/>
<path d="M24.2676 22.7818L13.3782 11.8924C12.9682 11.4823 12.3033 11.4823 11.8933 11.8924C11.4832 12.3024 11.4832 12.9672 11.8933 13.3773L22.7827 24.2667C23.1928 24.6768 23.8576 24.6768 24.2676 24.2667C24.6777 23.8567 24.6777 23.1919 24.2676 22.7818Z" fill="#4089CB"/>
<path d="M22.8673 12.1181L11.9778 23.0075C11.5678 23.4176 11.5678 24.0824 11.9778 24.4925C12.3879 24.9025 13.0527 24.9025 13.4627 24.4925L24.3522 13.603C24.7622 13.193 24.7622 12.5281 24.3522 12.1181C23.9421 11.708 23.2773 11.708 22.8673 12.1181Z" fill="#4089CB"/>
</svg>
